<svg xmlns="http://www.w3.org/2000/svg" viewBox="0 0 393.19 412.37"><g id="Objects"><path d="M0,196.6C0,88,88,0,196.6,0S393.19,88,393.19,196.6s-88,196.59-196.59,196.59S0,305.17,0,196.6" style="fill:#ffdcd2"/><path d="M278.4,312.12c-6.48,2.67-13.77,2.31-20.65,3.36-.64.1-1.29.23-1.93.34,9.73-.13,19.53,1.09,29.14,2-1.92-1.82-3.9-3.58-6-5.24A2.83,2.83,0,0,1,278.4,312.12Z" style="fill:#c93147"/><path d="M195.59,199.06c4.89-.4,8.5-4.94,11.83-8.1-6.41,4.13-14.51,4.46-21.65,2.15C188,196.37,191.48,199.07,195.59,199.06Z" style="fill:#ffb9a1"/><path d="M187.85,232.13a40,40,0,0,1-4.1,0A18.27,18.27,0,0,1,172,227a11.77,11.77,0,0,1-6.22-.65,9.26,9.26,0,0,0,2.23,4.75c5.74,6.68,15.13,8.56,23.52,9.12a55.13,55.13,0,0,0,38.35-12.8,19.25,19.25,0,0,0,3-8.58l-.17.11a23.1,23.1,0,0,1-6.95,1.82c-3.71,1.45-7.29,3.39-11.18,4.43a.54.54,0,0,1-.36-1c2.92-1.48,6.06-2.75,8.87-4.41,1-.46,1.67-1.42,2.72-1.66a14.88,14.88,0,0,0,4.19-1,8.83,8.83,0,0,0,2.85-2.38c-.61-4.18-3.1-7.57-8.41-7.74a22.34,22.34,0,0,0-8.2,2.2c-15.37,9.33-25,4.31-41.18,4.85a10.77,10.77,0,0,0-9.17,8.38,2.19,2.19,0,0,0,.34.1c2,.7,4.57.14,6.29,1.56.71,1.11.47,1.68,1.8,2.59,4.24,2.82,9.75,2,14.48,2.78a1.36,1.36,0,0,1,1.28,1.25C190.23,232,188.81,232.25,187.85,232.13Z" style="fill:#fff"/><path d="M290.2,167.88a98.21,98.21,0,0,0-7.11,8.28,2.69,2.69,0,0,1-.26.33c-.95,5.81-3,13-3.17,15.29-.93,4.15-1.84,8.38-2.82,12.61a7.65,7.65,0,0,0,1.41-.92,20.34,20.34,0,0,0,7.41-11.15c1.26-5.61-.36-11.28,4.41-15.68,1.5-1.8,9.18-10.25,10.43-5.41a4.49,4.49,0,0,1-1.63,2.59l-.75.75c.2,9.1-2.42,18.86-9.84,24.65-.81.69-1.66,1.46-2.56,2.2a16.51,16.51,0,0,1-4.82,4.63c-1.35.69-3.4,2.56-4.88,1.88-.33,1.37-.67,2.74-1,4.12a11,11,0,0,0,5.83-.67c14.51-5.75,23.57-27.54,22.45-42.3C302.22,159.57,294.69,163,290.2,167.88Z" style="fill:#ffe2cc"/><path d="M136.37,139.34c7.95-4.4,17.48-5.15,26.23-3C157.85,124.78,141.73,131.78,136.37,139.34Z" style="fill:#a54921"/><path d="M109,204.87a19.23,19.23,0,0,1-6.8-5.37c-8.77-4-12.26-15.64-12.19-24.75a.89.89,0,0,1,.29-.62c-.62-.5-1.25-1-1.9-1.41S87.3,171.53,88,171c3.3-.35,6.85,2.64,9.19,4.79,7.64,6.16.86,10.78,5.24,17.62a45.55,45.55,0,0,0,7.49,8.47c-1.09-4.5-2.17-9.25-3.25-14.32-.06-1.23-1-4.52-1.7-7.89-1.5-2.16-3-4.71-3.58-5.17-3.72-4.53-13.23-16.81-18.13-7.74-3.63,9.71,7,36.21,16,41.11,3.83,2.1,8.49,3.23,12.76,2.23-.5-1.84-1-3.72-1.49-5.67A1.34,1.34,0,0,1,109,204.87Z" style="fill:#ffe2cc"/><path d="M100.68,197.16a13.4,13.4,0,0,1-1.74-7.53c-.07-5.44-3.07-10.39-7-14.1C91.48,183.3,93.93,192.92,100.68,197.16Z" style="fill:#ffb9a1"/><path d="M251.51,139.34c-5.37-7.56-21.49-14.56-26.23-3C234,134.19,243.55,134.94,251.51,139.34Z" style="fill:#a54921"/><path d="M315.2,113.29c-.21,5.63-1.52,11.42-4.71,16.22,0-.4,0-.79.05-1.17a23.2,23.2,0,0,0-1.39-8.78c-.31-.81-.76-1.83-1.71-2s-1.23.87-1.34,1.51c.06,10.16-.68,20.44-5.07,29.84a84.1,84.1,0,0,1-4.27,8.87,1.84,1.84,0,0,0-.17.68c-4.69,1-9.51,5.16-12.94,9.67q-.39.51-.75,1a1.19,1.19,0,0,0-.42-.44c.74-6.48.4-15.41.36-17.81s1-6.13-1.63-7.85c-7.62-5.69-13.44-13.71-14.63-23.24a42.87,42.87,0,0,0,15.9,4.39,15.22,15.22,0,0,0,3.16-.15c2.21-.14,2.16-3.6,0-3.64-9.57-1.39-19.68-4-25.66-12.21-4.42-5.49-6.58-12-8.21-18.78-1.62-6-3-13.09-8.69-16.58a7.34,7.34,0,0,0-5.43-.74,5.18,5.18,0,0,0-1,.41c-6.72-11.87-21.2-15.27-32.19-6.86C197.06,71,193,79.3,188.4,86.85c-7.52,13.6-19.66,24.68-35,28.46,3.29-3.8,6.54-7.58,8.79-12.12.53-1.42,2.37-3.43,2.25-5,3.14-4.65,5.35-9.65,5.24-14.6a.47.47,0,1,0-.91-.23C165.16,88,162.86,93.6,159,98.2a76.48,76.48,0,0,1-22.41,19.57c-5,2.85-10.08,5.42-15.22,8a9,9,0,0,1-1,.53,39.86,39.86,0,0,0,1.89-8.8c.1-1.11.7-11.06-1.72-7.26-2.1,5.62-2.78,11.73-5.29,17.23-3,7.28-7.79,14-11.92,20.78a212.28,212.28,0,0,0,2,22.34,1.22,1.22,0,0,0-.76.51,39.22,39.22,0,0,0-8.47-8.72,19.76,19.76,0,0,0-5.69-3.08,1.15,1.15,0,0,0-.12-.76,74.89,74.89,0,0,1-4.38-11c-3-9.62-2.84-19.55-1.61-29.55,0-.68.64-6.07-.85-4.39a26.65,26.65,0,0,0-4.27,13.26q-.8-2.34-1.5-4.69c-2.82-19.27,3.52-39.09,16.11-54C122.29,32,161.93,5.88,209.6,15c13.77,3,28,9,37.29,19.95a27,27,0,0,1,3,5c.23.4.44.83.66,1.23-.58.89-.6,2.38.7,2.51,3.33-.62,6.24-2.85,9.59-3.63a29.89,29.89,0,0,1,16.06-.28C305.25,47.42,316.2,87.08,315.2,113.29Z" style="fill:#c66a2c"/><path d="M289.26,187.5c-.51,4.34-.8,8.15-2.23,11.51,5.63-5.35,8.89-15.15,9.21-22.49C293.23,179.72,290.5,183.28,289.26,187.5Z" style="fill:#ffb9a1"/><path d="M127.87,316.33c-2.35-.36-4.71-.7-7.06-1-4.76-.51-9.62-1.42-13.82-3.71a2.52,2.52,0,0,1-.68.71,106,106,0,0,0-10.77,10.41,145.19,145.19,0,0,1,28.7-6.07Z" style="fill:#c93147"/><path d="M167.79,327.86c.82-1.41,1.45-3.3,2.68-4.43-1-1.26-2.07-2.48-3.15-3.66a14.1,14.1,0,0,0-1.35,2.1,76.63,76.63,0,0,0-9.6,26.34c-1.1,7.26-4.74,26.15.13,31.52,3.36,1.85,1.68-4.67,2-6.13a89.22,89.22,0,0,1,.89-17.44C161.16,346.47,163.54,336.79,167.79,327.86Z" style="fill:#9eadac"/><path d="M204.16,71.74a43.2,43.2,0,0,0-3.25,3.8c8.7-5.14,20.18-7.74,29.57-3.91C222.92,63.76,212.51,63.4,204.16,71.74Z" style="fill:#a54921"/><path d="M320.53,378.88q-9.27,4.94-18.87,9.27c-24.53,11.23-51.19,17.24-78.14,18.83-36,2.38-72.41-.09-107.35-9.25-17.27-4.4-34.74-10-49.28-20.63a5.52,5.52,0,0,0,.7-1.89c1-3.67,2.09-7.32,3.4-10.89a129.23,129.23,0,0,1,22.31-39,104.46,104.46,0,0,1,12.16-3.94,130.08,130.08,0,0,1,28.77-3.95c3.29.61,6.54,1.31,9.79,2.18a78.63,78.63,0,0,1,16.38,6c-1.44,3-2.59,5.92-3,6.85-3.22,8.11-12.67,49.82,0,51.05,8.22-.15,4.16-10.4,4.65-15.56a103.48,103.48,0,0,1,3.78-25.41,101.07,101.07,0,0,1,4.47-13.17c.13-.7,1.09-2.32,1.7-3.82.17.27.36.5.53.76a1,1,0,0,0,1.23.32c1.43-1.08-.82-3.4-1.14-4.73-1.42-3.06-4-5.4-6.54-7.48a2.19,2.19,0,0,0-1.82-.63c-2.1.91-.17,2.78,1,3.82a18.83,18.83,0,0,0-2.88,4.09c-5.29-4.13-20.38-7.08-25-8.31-14.31-3.59-33.89-.45-37.84-19-1.81-8.81,5.75-13.86,11.57-18.91a3.25,3.25,0,0,0,.87-2c.17-3.29.16-6.59.53-9.86a43.25,43.25,0,0,1,11-24,53.34,53.34,0,0,0,10.12,12.46,55,55,0,0,0,16.11,10c.17.34.36.68.51,1-.7,1.44-1.25,2.93-2,4.33-.26.55-.51,1.12-.77,1.67a1.9,1.9,0,0,0-1.51.15c-2.27,1.23-3,4.05-3.6,6.37-4.76,22.62,24.72,21.79,37.79,30.71a23,23,0,0,1,3.21,3.18c3.23,3.8,5.41,8.47,7.91,12.76a2.48,2.48,0,0,0,.66,1.86c1.74.87,2.3-2,3-3.12a33.1,33.1,0,0,1,3.65-6.38,29.41,29.41,0,0,1,4.33-4.44h0c10-8.3,24.21-9.74,35.16-16.47a29.88,29.88,0,0,0,10.17-11.35c.59-2.38,4.88-9.62,1.51-10.76a2,2,0,0,0-2.42,1c-.19.67-.41,1.33-.62,2a28.16,28.16,0,0,0-4.67-13.43,49,49,0,0,0,14.58-9.62c1.06-1.23,2-2.48,3-3.77a70.57,70.57,0,0,0,4.87-7.65c10.67,7.26,14.6,18.4,12.26,31.25-.72,2.52,1.53,4.26,2.95,6,4.46,5.35,10.17,11.84,8,19.36-2.8,10-14.13,13.07-23.34,13.35a96.82,96.82,0,0,0-19.53,3.6c-2.7.87-16.22,4.91-20.12,8.86-.61-1.09-1.25-2.19-1.89-3.25a11,11,0,0,0-1.19-1.57,9.43,9.43,0,0,0,2.08-3.25,1,1,0,0,0-.65-.95c-4.14-.2-6.58,4.67-8.52,7.7-.65,1.63-1.44,3-2,4.77a1.11,1.11,0,0,0,1.93.92c.21-.3.4-.6.61-.92.07.11.15.2.22.3,7.11,10.32,9.42,23.13,9.44,35.51,0,3.41,0,7.32-.3,10.86-.14,3.29-.91,7.6,2.49,9.56,2,1.25,4.5.25,6-1.3,7.61-8.89,2.48-27.89-.05-38.33a84.53,84.53,0,0,0-6.45-16.77l1-.48c1.8-.92,3.6-1.83,5.45-2.63a111,111,0,0,1,14.77-5.12c13-1.17,26.11.62,39.12,2,16,16.07,25.61,37.55,33.53,58.75A2.28,2.28,0,0,0,320.53,378.88Z" style="fill:#e56161"/><path d="M231.87,376.31c4.41-16-4.09-41.39-12.19-55.44a4.63,4.63,0,0,1-.43-.56,12.47,12.47,0,0,0-1.48,1.94c-.38.46-.72,1-1.07,1.45,1.72.95,3.11,4.19,4,5.48,4.95,9.8,6.87,20.84,7.3,31.73.21,5.58.07,11.2-.21,16.78C228.49,380.9,231.31,378.15,231.87,376.31Z" style="fill:#9eadac"/><path d="M189.52,265.71c1.46.38,3.71,0,5.41.36a11.34,11.34,0,0,1,3.33-.17c6.44-.21,12.79-1.52,19.11-2.73,12.87-2.37,26.58-5.49,36.13-15.08,13.51-16.28,17.28-37.94,21.75-58,.81-2.07,1.76-10.22,3.31-15.88-1-4.55,1-17.09,1.06-19.46s1.5-6.61-.93-8c-9.3-6.71-16.41-16.65-16.81-28.43a5.62,5.62,0,0,1,0-1.52C243.77,102.7,250,74.43,236.2,75.92c-.9.47-2.34,0-3.38-1.52-11.75-3.13-24.74-1.47-34.87,5.36-3.49,5.4-6.39,11.23-10.21,16.42a54,54,0,0,1-33,22.77c-1.33.33-2.86,1-4.13.15a1.51,1.51,0,0,1-.71-1.52,1.09,1.09,0,0,1,0-.17h0a92.72,92.72,0,0,0,4.87-8.06c-1.14,1.11-2.25,2.15-3.29,3.11-7.32,6.52-16,11.17-24.83,15.37-2.75,1.27-5.51,2.58-8.37,3.58-3.08,6.69-7.46,12.88-11.69,18.8-.37,4.73,1.42,9.49,1.68,14.26a95.64,95.64,0,0,1,.52,11.46c2.22,9.32,3.92,18.75,6.51,28C126.18,250.63,143.35,261.11,189.52,265.71Zm-41-88.65c-9.52-2.7-3.94-16.75,4.61-15.76,3.07.13,4.4,3.37,4.65,6C158.63,172.52,154,178.27,148.52,177.06Zm90.83,0c-5.49,1.21-10.11-4.54-9.26-9.73.25-2.66,1.58-5.9,4.65-6C243.29,160.31,248.87,174.36,239.35,177.06Zm-17.56-41.77c1.21-6,7.82-9,13.46-8.85,7.62.44,14.7,5.57,18.8,11.85.59,1.42,2.66,4.38.34,5.12-6.15-2.64-12.24-5.13-19.27-5-3.8-.37-7.9,1.2-11.76,1.22C221.66,139,221.6,136.84,221.79,135.29Zm-41.41,48.78c.93-1.81,2.74-1,3,.77.47,6.52,8,8,13.39,7.18s9.31-3.5,13.87-5.53a1.37,1.37,0,0,1,.94,2.24c-1.15,1.44-2,3.13-3.08,4.6-3,4.67-8.14,8.32-13.9,7.55-5.4-1.07-10.93-4.89-12.85-10.17C180.17,188.92,179.23,186.32,180.38,184.07Zm-2.47,25.81c3.73,0,7.2,1.47,10.79,2.27A35.82,35.82,0,0,0,205,210.09c6.28-1.94,11.34-6.41,17.89-7.31,15.61-1.74,18.52,19,8.54,27.65-10.26,9.75-25,13.79-38.92,13.7-14,.67-38.05-8.64-29.43-26.24A15,15,0,0,1,177.91,209.88Zm-44.09-71.59c4.1-6.28,11.19-11.41,18.8-11.85,5.64-.14,12.25,2.87,13.46,8.85.2,1.55.13,3.71-1.56,4.37-3.87,0-8-1.59-11.77-1.22-7-.16-13.12,2.33-19.27,5C131.16,142.67,133.23,139.71,133.82,138.29Z" style="fill:#ffe2cc"/><path d="M154.46,291c10.77,6.16,26,5.65,33.6,16.78a29.22,29.22,0,0,1,4.54,8.35c2.06-4.88,6.28-8.8,10.67-11.72,8.72-6.62,20.14-8,29.64-13a1.82,1.82,0,0,1-.73-1.1c-1.17-5-2.81-14.49-1.67-21.7-11.07,10.91-24.88,21.8-41.11,21.4-9.77-.94-19.54-4.6-26.63-11.58-1.9-2-4.11-3.89-6.19-5.86,0,4.57-.79,9.23-1.36,13.68C154.81,287.32,154.83,289.35,154.46,291Z" style="fill:#ffe2cc"/><path d="M235.14,285c0,1.29.77,3.11.79,4.57.51-.33,1-.67,1.52-1a27.28,27.28,0,0,0,7-8.63,17.77,17.77,0,0,0,.53-2.57c.56-5.5-1.66-10.91-4.49-15.53-1.3.53-2.61,1-3.93,1.48a3.37,3.37,0,0,1-.32.73C233.79,270.73,234.15,278.13,235.14,285Z" style="fill:#c93147"/><path d="M149.7,268.11c-.46,1-1,1.94-1.44,2.9-1.52,4.56-2.75,9.74-.46,14.31a20.73,20.73,0,0,0,3.09,3.12c.1-1,.18-2,.29-3,.53-6.4,1.8-13.28.11-19.5-.09-.18-.16-.36-.24-.54C150.58,266.28,150.1,267.18,149.7,268.11Z" style="fill:#c93147"/><path d="M171.16,282.69c18.11,10.35,39.45-.43,53.3-13.1,1.65-1.35,3.12-2.75,4.57-4.13q-9.56,2.22-19.23,3.93c-4.44.53-9.28,1.82-13.74,1.12a2.37,2.37,0,0,1-1.31.36c-16.27-1.22-29.12-3.32-39.46-6.74.12.35.24.7.34,1.06,1.72,2.73,3.13,5.66,5.09,8.23A41.41,41.41,0,0,0,171.16,282.69Z" style="fill:#ffb9a1"/><path d="M111.85,214.81l.06,0h0Z" style="fill:#440829"/><path d="M112,214.76l-.08,0,.12,0h0Z" style="fill:#440829"/><path d="M164.52,139.66c1.69-.66,1.76-2.82,1.56-4.37-1.21-6-7.82-9-13.46-8.85-7.61.44-14.7,5.57-18.8,11.85-.59,1.42-2.66,4.38-.34,5.12,6.15-2.64,12.24-5.13,19.27-5C156.56,138.07,160.65,139.64,164.52,139.66Zm-28.15-.32c5.36-7.56,21.48-14.56,26.23-3C153.85,134.19,144.32,134.94,136.37,139.34Z" style="fill:#440829"/><path d="M153.13,161.3c-8.55-1-14.13,13.06-4.61,15.76,5.49,1.21,10.11-4.54,9.26-9.73C157.53,164.67,156.2,161.43,153.13,161.3Z" style="fill:#440829"/><path d="M223.36,139.66c3.86,0,8-1.59,11.76-1.22,7-.16,13.12,2.33,19.27,5,2.32-.74.25-3.7-.34-5.12-4.1-6.28-11.18-11.41-18.8-11.85-5.64-.14-12.25,2.87-13.46,8.85C221.6,136.84,221.66,139,223.36,139.66Zm28.15-.32c-8-4.4-17.49-5.15-26.23-3C230,124.78,246.14,131.78,251.51,139.34Z" style="fill:#440829"/><path d="M234.74,161.3c-3.07.13-4.4,3.37-4.65,6-.85,5.19,3.77,10.94,9.26,9.73C248.87,174.36,243.29,160.31,234.74,161.3Z" style="fill:#440829"/><path d="M194.58,200.88c5.76.77,10.9-2.88,13.9-7.55,1.11-1.47,1.93-3.16,3.08-4.6a1.37,1.37,0,0,0-.94-2.24c-4.56,2-8.54,4.81-13.87,5.53s-12.92-.66-13.39-7.18c-.24-1.79-2.05-2.58-3-.77-1.15,2.25-.21,4.85,1.35,6.64C183.65,196,189.18,199.81,194.58,200.88ZM207.42,191c-3.33,3.16-6.94,7.7-11.83,8.1-4.11,0-7.55-2.69-9.82-5.95C192.91,195.42,201,195.09,207.42,191Z" style="fill:#440829"/><path d="M163,217.89c-8.62,17.6,15.43,26.91,29.43,26.24,13.92.09,28.66-3.95,38.92-13.7,10-8.63,7.07-29.39-8.54-27.65-6.55.9-11.61,5.37-17.89,7.31a35.82,35.82,0,0,1-16.25,2.06c-3.59-.8-7.06-2.24-10.79-2.27A15,15,0,0,0,163,217.89Zm25.81,11.5c-4.73-.8-10.24,0-14.48-2.78-1.33-.91-1.09-1.48-1.8-2.59-1.72-1.42-4.26-.86-6.29-1.56a2.19,2.19,0,0,1-.34-.1A10.77,10.77,0,0,1,175.1,214c16.16-.54,25.81,4.48,41.18-4.85a22.34,22.34,0,0,1,8.2-2.2c5.31.17,7.8,3.56,8.41,7.74a8.83,8.83,0,0,1-2.85,2.38,14.88,14.88,0,0,1-4.19,1c-1,.24-1.76,1.2-2.72,1.66-2.81,1.66-5.95,2.93-8.87,4.41a.54.54,0,0,0,.36,1c3.89-1,7.47-3,11.18-4.43a23.1,23.1,0,0,0,6.95-1.82l.17-.11a19.25,19.25,0,0,1-3,8.58,55.13,55.13,0,0,1-38.35,12.8c-8.39-.56-17.78-2.44-23.52-9.12a9.26,9.26,0,0,1-2.23-4.75A11.77,11.77,0,0,0,172,227a18.27,18.27,0,0,0,11.76,5.22,40,40,0,0,0,4.1,0c1,.12,2.38-.18,2.27-1.49A1.36,1.36,0,0,0,188.84,229.39Z" style="fill:#440829"/><path d="M324.18,377.82c-.54-4.94-3.39-9.39-5-14.07a183.14,183.14,0,0,0-9.94-21.53A118,118,0,0,0,296,323.06c-4.1-4.53-8.15-9.81-13.43-13,6.66-3.9,11.38-11.52,10.09-19.36C291,283,285.6,276.42,280.16,271c1.81-12.32.69-23.71-9.94-31.8-.87-.62-2.24-1.9-3.68-2.89a118.59,118.59,0,0,0,7.39-20.23c12.69,2.28,22.76-9.33,27.62-19.77,4.63-10.4,10.21-24.65,3.4-35.17a9.08,9.08,0,0,0-3.94-2.54c1.48-2.59,2.81-5.28,4.07-8a55.86,55.86,0,0,0,5.06-17,38.53,38.53,0,0,0,5.43-7.39c7.27-14.07,3.85-31.18.3-45.9C309.58,58.71,294.25,34.05,269,34.28c-5.07.27-10.86,1.22-15.24,4.1a12.87,12.87,0,0,0-1.26-3.13c-6.55-10.94-18.82-17.08-30.36-21.5-35.18-12-75.14-2-102.95,22-20.7,18-43,39.55-46,68.24a54,54,0,0,0,.56,15.34,37,37,0,0,0,5.56,14.72,62.81,62.81,0,0,0,8,24.75,5.57,5.57,0,0,0-.82.1c-18.36,4.52-3.33,35.84,3,45.87a23.2,23.2,0,0,0,18.81,10.45,9.43,9.43,0,0,0,3.69-.46h0a11.25,11.25,0,0,0,1.2-.4,120.48,120.48,0,0,0,8.17,21.33c-3.37,2-7.2,9.78-8.35,11.87-3.93,7.53-3.28,16.08-4.44,24.19-4.61,3.46-9.54,7.19-12.07,12.52-3.79,8.51-.36,18.73,6.53,24.6-18.13,15.61-30.86,37-38.19,59.64-.63,2-1.22,4-1.68,6a7,7,0,0,0-.2,1.45,1.59,1.59,0,0,0-.69,1c0,2.69,3,4.2,4.84,5.77C95.37,402,150,411.21,184.21,412.06,232,414,281.56,407.45,323.06,382.3a2,2,0,0,0,.42-2.92A1.75,1.75,0,0,0,324.18,377.82Zm-39.22-60c-9.61-.93-19.41-2.15-29.14-2,.64-.11,1.29-.24,1.93-.34,6.88-1.05,14.17-.69,20.65-3.36a2.83,2.83,0,0,0,.55.48C281.06,314.26,283,316,285,317.84Zm18.32-148.76c1.12,14.76-7.94,36.55-22.45,42.3a11,11,0,0,1-5.83.67c.35-1.38.69-2.75,1-4.12,1.48.68,3.53-1.19,4.88-1.88a16.51,16.51,0,0,0,4.82-4.63c.9-.74,1.75-1.51,2.56-2.2,7.42-5.79,10-15.55,9.84-24.65l.75-.75a4.49,4.49,0,0,0,1.63-2.59c-1.25-4.84-8.93,3.61-10.43,5.41-4.77,4.4-3.15,10.07-4.41,15.68a20.34,20.34,0,0,1-7.41,11.15,7.65,7.65,0,0,1-1.41.92c1-4.23,1.89-8.46,2.82-12.61.21-2.25,2.22-9.48,3.17-15.29a2.69,2.69,0,0,0,.26-.33,98.21,98.21,0,0,1,7.11-8.28C294.69,163,302.22,159.57,303.28,169.08ZM287,199c1.43-3.36,1.72-7.17,2.23-11.51,1.24-4.22,4-7.78,7-11C295.92,183.86,292.66,193.66,287,199ZM85.94,147.51c-3-9.62-2.84-19.55-1.61-29.55,0-.68.65-6.06-.84-4.39a26.71,26.71,0,0,0-4.27,13.25q-.8-2.32-1.49-4.69c-2.83-19.26,3.51-39.08,16.11-54C122.3,32,161.93,5.88,209.61,15c13.75,2.95,28,9,37.29,19.94a27.54,27.54,0,0,1,3,5c.22.39.42.82.66,1.23-.6.88-.6,2.38.69,2.51,3.33-.63,6.25-2.85,9.59-3.62a29.85,29.85,0,0,1,16.05-.29c28.39,7.63,39.35,47.28,38.34,73.49-.22,5.63-1.51,11.42-4.71,16.22,0-.4.05-.78.05-1.18a23.22,23.22,0,0,0-1.4-8.77c-.29-.8-.75-1.84-1.7-2s-1.22.87-1.34,1.51c.06,10.17-.68,20.45-5.07,29.84a86,86,0,0,1-4.27,8.87,2.07,2.07,0,0,0-.18.69c-5,1.05-10.22,5.79-13.68,10.67a1.18,1.18,0,0,0-.41-.42,151.71,151.71,0,0,0,.36-17.81c-.2-2.53,1-6.14-1.64-7.85-7.61-5.7-13.43-13.73-14.64-23.26a42.6,42.6,0,0,0,15.9,4.39,14,14,0,0,0,3.17-.14c2.21-.13,2.15-3.59,0-3.64-9.57-1.39-19.68-4-25.67-12.21-4.41-5.48-6.56-12-8.2-18.78-1.63-6-3-13.09-8.69-16.57a7.19,7.19,0,0,0-5.42-.75,5.09,5.09,0,0,0-1.06.41c-6.71-11.87-21.2-15.28-32.18-6.86C197.07,71,193,79.3,188.4,86.86c-7.52,13.58-19.67,24.67-35,28.45,3.29-3.8,6.55-7.58,8.8-12.13.53-1.41,2.36-3.42,2.24-5,3.14-4.64,5.35-9.64,5.24-14.59a.47.47,0,1,0-.91-.23C165.17,88,162.86,93.61,159,98.19a75.94,75.94,0,0,1-22.42,19.57c-5,2.86-10.09,5.43-15.23,8a8.61,8.61,0,0,1-.94.52,39.77,39.77,0,0,0,1.89-8.79c.09-1.13.71-11.07-1.72-7.27-2.1,5.63-2.77,11.73-5.29,17.24-3,7.28-7.79,14-11.91,20.77a207.3,207.3,0,0,0,2,22.34,1.24,1.24,0,0,0-.77.51c-3.76-5.28-9.36-10.28-14.16-11.8a1.34,1.34,0,0,0-.12-.77A74.38,74.38,0,0,1,85.94,147.51ZM230.48,71.63c-9.39-3.83-20.87-1.23-29.57,3.91a43.2,43.2,0,0,1,3.25-3.8C212.51,63.4,222.92,63.76,230.48,71.63ZM99.25,207.89c-9.06-4.9-19.65-31.4-16-41.11,4.9-9.07,14.41,3.21,18.13,7.74.6.46,2.08,3,3.58,5.17.73,3.37,1.64,6.66,1.7,7.89,1.08,5.07,2.16,9.82,3.25,14.32a45.55,45.55,0,0,1-7.49-8.47c-4.38-6.84,2.4-11.46-5.24-17.62-2.34-2.15-5.89-5.14-9.19-4.79-.67.51,0,1.33.46,1.7s1.28.91,1.9,1.41a.89.89,0,0,0-.29.62c-.07,9.11,3.42,20.72,12.19,24.75a19.23,19.23,0,0,0,6.8,5.37,1.34,1.34,0,0,0,1.49-.42c.49,2,1,3.83,1.49,5.67C107.74,211.12,103.08,210,99.25,207.89Zm1.43-10.73c-6.75-4.24-9.2-13.86-8.76-21.63,4,3.71,7,8.66,7,14.1A13.4,13.4,0,0,0,100.68,197.16Zm14.66,6.76c-2.59-9.23-4.29-18.66-6.51-28a95.64,95.64,0,0,0-.52-11.46c-.26-4.77-2-9.53-1.68-14.26,4.23-5.92,8.61-12.11,11.69-18.8,2.86-1,5.62-2.31,8.37-3.58,8.79-4.2,17.51-8.85,24.83-15.37,1-1,2.15-2,3.29-3.11a92.72,92.72,0,0,1-4.87,8.06h0a1.09,1.09,0,0,0,0,.17,1.51,1.51,0,0,0,.71,1.52c1.27.8,2.8.18,4.13-.15a54,54,0,0,0,33-22.77c3.82-5.19,6.72-11,10.21-16.42,10.13-6.83,23.12-8.49,34.87-5.36,1,1.57,2.48,2,3.38,1.52,13.78-1.49,7.57,26.78,25.64,40.85a5.62,5.62,0,0,0,0,1.52c.4,11.78,7.51,21.72,16.81,28.43,2.43,1.43.94,5.64.93,8s-2.06,14.91-1.06,19.46c-1.55,5.66-2.5,13.81-3.31,15.88-4.47,20.05-8.24,41.71-21.75,58-9.55,9.59-23.26,12.71-36.13,15.08-6.32,1.21-12.67,2.52-19.11,2.73a11.34,11.34,0,0,0-3.33.17c-1.7-.33-4,0-5.41-.36C143.35,261.11,126.18,250.63,115.34,203.92Zm125.17,57.93c2.83,4.62,5.05,10,4.49,15.53a17.77,17.77,0,0,1-.53,2.57,27.28,27.28,0,0,1-7,8.63c-.5.36-1,.7-1.52,1,0-1.46-.83-3.28-.79-4.57-1-6.91-1.35-14.31,1.12-21a3.37,3.37,0,0,0,.32-.73C237.9,262.88,239.21,262.38,240.51,261.85Zm-83.93,10.68c2.08,2,4.29,3.82,6.19,5.86,7.09,7,16.86,10.64,26.63,11.58,16.23.4,30-10.49,41.11-21.4-1.14,7.21.5,16.73,1.67,21.7a1.82,1.82,0,0,0,.73,1.1c-9.5,5-20.92,6.37-29.64,13-4.39,2.92-8.61,6.84-10.67,11.72a29.22,29.22,0,0,0-4.54-8.35c-7.6-11.13-22.83-10.62-33.6-16.78.37-1.6.35-3.63.76-4.74C155.79,281.76,156.61,277.1,156.58,272.53Zm-1.29-8.4c10.34,3.42,23.19,5.52,39.46,6.74a2.37,2.37,0,0,0,1.31-.36c4.46.7,9.3-.59,13.74-1.12q9.66-1.71,19.23-3.93c-1.45,1.38-2.92,2.78-4.57,4.13-13.85,12.67-35.19,23.45-53.3,13.1a41.41,41.41,0,0,1-10.44-9.27c-2-2.57-3.37-5.5-5.09-8.23C155.53,264.83,155.41,264.48,155.29,264.13Zm-4.11,21.28c-.11,1.07-.19,2-.29,3a20.73,20.73,0,0,1-3.09-3.12c-2.29-4.57-1.06-9.75.46-14.31.48-1,1-1.93,1.44-2.9s.88-1.83,1.35-2.74c.08.18.15.36.24.54C153,272.13,151.71,279,151.18,285.41Zm-44.87,26.92a2.52,2.52,0,0,0,.68-.71c4.2,2.29,9.06,3.2,13.82,3.71,2.35.3,4.71.64,7.06,1l-3.63.34a145.19,145.19,0,0,0-28.7,6.07A106,106,0,0,1,106.31,312.33Zm195.36,75.81c-24.53,11.23-51.2,17.24-78.16,18.84-36,2.38-72.39-.09-107.35-9.25-17.26-4.4-34.72-10-49.28-20.63a5.41,5.41,0,0,0,.7-1.88c1-3.68,2.1-7.32,3.42-10.9a129.37,129.37,0,0,1,22.3-39,106.5,106.5,0,0,1,12.17-3.93,130.66,130.66,0,0,1,28.75-3.95c3.3.61,6.57,1.31,9.82,2.18h0a78.78,78.78,0,0,1,16.38,6c-1.43,3-2.6,5.91-3,6.85-3.2,8.1-12.65,49.83,0,51.06,8.23-.17,4.16-10.41,4.67-15.56a110.94,110.94,0,0,1,8.23-38.58c.15-.7,1.11-2.33,1.71-3.82.17.25.36.49.52.75a1,1,0,0,0,1.23.31c1.44-1.06-.8-3.4-1.13-4.72-1.41-3.05-4-5.41-6.53-7.48a2.2,2.2,0,0,0-1.84-.63c-2.09.91-.15,2.78,1,3.83a17.63,17.63,0,0,0-2.87,4.08c-5.3-4.13-20.39-7.08-25-8.31-14.33-3.58-33.9-.45-37.85-19-1.81-8.81,5.76-13.87,11.57-18.91a3.29,3.29,0,0,0,.88-2c.17-3.29.15-6.57.51-9.85a43.36,43.36,0,0,1,11-24c6.2,10.35,14.36,17.54,26.22,22.49.18.34.36.68.52,1-.7,1.42-1.25,2.93-2,4.33-.28.54-.52,1.1-.79,1.66a1.91,1.91,0,0,0-1.51.15c-2.27,1.23-3,4.05-3.58,6.38-4.77,22.6,24.71,21.77,37.78,30.7,5.15,4.12,7.86,10.35,11.12,15.94a2.5,2.5,0,0,0,.66,1.85c1.74.88,2.3-2,3-3.12a33.15,33.15,0,0,1,3.66-6.37c9.72-12.42,26.83-13.13,39.5-20.91a30,30,0,0,0,10.17-11.35c.59-2.37,4.88-9.63,1.52-10.75a2,2,0,0,0-2.43,1q-.28,1-.63,2a28.08,28.08,0,0,0-4.66-13.43,48.6,48.6,0,0,0,14.57-9.62,66.75,66.75,0,0,0,7.88-11.42c10.66,7.27,14.59,18.4,12.24,31.26-.71,2.52,1.54,4.26,3,6,4.47,5.35,10.17,11.84,8,19.35-2.8,10-14.13,13.07-23.34,13.37a95.2,95.2,0,0,0-19.52,3.58c-2.71.87-16.24,4.92-20.13,8.87q-.91-1.65-1.89-3.24a11.27,11.27,0,0,0-1.19-1.58,9.08,9.08,0,0,0,2.07-3.25.92.92,0,0,0-.63-.94c-4.14-.22-6.59,4.66-8.54,7.7-.64,1.62-1.43,3-2,4.75a1.1,1.1,0,0,0,1.91.93c.21-.3.41-.61.62-.92a2.37,2.37,0,0,0,.23.3c7.1,10.32,9.4,23.12,9.43,35.52,0,3.4,0,7.3-.3,10.85-.13,3.29-.9,7.61,2.49,9.57,2,1.24,4.5.24,6-1.31,7.61-8.88,2.49-27.89-.06-38.33a84.82,84.82,0,0,0-6.44-16.78c.34-.14.68-.31,1-.47,1.79-.92,3.59-1.83,5.44-2.62a110.57,110.57,0,0,1,14.77-5.13c13-1.17,26.12.63,39.13,2,16,16.08,25.61,37.56,33.53,58.75a1.89,1.89,0,0,0,.21.52C314.35,382.17,308.05,385.24,301.67,388.14ZM158.51,373.6c-.33,1.46,1.35,8-2,6.13-4.87-5.37-1.23-24.26-.13-31.52a76.63,76.63,0,0,1,9.6-26.34,14.1,14.1,0,0,1,1.35-2.1c1.08,1.18,2.15,2.4,3.15,3.66-1.23,1.13-1.86,3-2.68,4.43-4.25,8.93-6.63,18.61-8.39,28.3A89.22,89.22,0,0,0,158.51,373.6ZM228,360.91c-.43-10.89-2.35-21.93-7.3-31.73-.9-1.29-2.29-4.53-4-5.48.35-.49.69-1,1.07-1.45a12.47,12.47,0,0,1,1.48-1.94,4.63,4.63,0,0,0,.43.56c8.1,14.05,16.6,39.45,12.19,55.44-.56,1.84-3.38,4.59-4.07,1.38C228.08,372.11,228.22,366.49,228,360.91Z" style="fill:#440829"/><path d="M112,214.76h0Z" style="fill:#440829"/><path d="M303.4,109.81q-5.06-4.8-10.1-9.61c4.37,9.89,3.27,21.22,1.76,31.92-1.16,8.23-2.56,16.49-5.58,24.22a91.56,91.56,0,0,1-5.83,11.79q-.39.51-.75,1a1.19,1.19,0,0,0-.42-.44c.74-6.48.4-15.41.36-17.81s1-6.13-1.63-7.85c-7.62-5.69-13.44-13.71-14.63-23.24a42.87,42.87,0,0,0,15.9,4.39,15.22,15.22,0,0,0,3.16-.15c2.21-.14,2.16-3.6,0-3.64-9.57-1.39-19.68-4-25.66-12.21-4.42-5.49-6.58-12-8.21-18.78-1.62-6-3-13.09-8.69-16.58a7.34,7.34,0,0,0-5.43-.74,5.18,5.18,0,0,0-1,.41c-6.72-11.87-21.2-15.27-32.19-6.86C197.06,71,193,79.3,188.4,86.85c-7.52,13.6-19.66,24.68-35,28.46,3.29-3.8,6.54-7.58,8.79-12.12.53-1.42,2.37-3.43,2.25-5,3.14-4.65,5.35-9.65,5.24-14.6a.47.47,0,1,0-.91-.23C165.16,88,162.86,93.6,159,98.2a76.48,76.48,0,0,1-22.41,19.57c-5,2.85-10.08,5.42-15.22,8a9,9,0,0,1-1,.53,39.86,39.86,0,0,0,1.89-8.8c.1-1.11.7-11.06-1.72-7.26-2.1,5.62-2.78,11.73-5.29,17.23-3,7.28-7.79,14-11.92,20.78a212.28,212.28,0,0,0,2,22.34,1.22,1.22,0,0,0-.76.51,39.22,39.22,0,0,0-8.47-8.72,114.46,114.46,0,0,1-1.3-30.58c1.36-13,5.59-25.93,13.31-36.53q-7.73,7-15.43,14c1.36-8.65,5.2-16.53,9.83-23.94,12.8-20.48,30.33-38.41,51.91-49.21s47.41-14,70.27-6.31a40,40,0,0,1,10.53,5.06c5.35,3.8,9.14,9.42,12.48,15.08,8.74-3.9,18.12-.74,26.4,4C293.3,65.12,305.16,87.72,303.4,109.81Z" style="fill:#a54921"/><path d="M183.41,309.5a273.8,273.8,0,0,1-35.7-9.63c-4.84-1.64-9.78-3.53-13.41-7.13s-5.6-8.68-6.43-13.76a38.61,38.61,0,0,1,5.81-26.93,55,55,0,0,0,16.11,10c.17.34.36.68.51,1-.7,1.44-1.25,2.93-2,4.33-.26.55-.51,1.12-.77,1.67a1.9,1.9,0,0,0-1.51.15c-2.27,1.23-3,4.05-3.6,6.37-4.76,22.62,24.72,21.79,37.79,30.71A23,23,0,0,1,183.41,309.5Z" style="fill:#c93147"/><path d="M267.32,271.05c-1.12,10.29-8.67,19-17.61,24.19s-19.23,7.47-29.35,9.66c-6,1.31-11.63,3.82-17.38,5.28,10-8.3,24.21-9.74,35.16-16.47a29.88,29.88,0,0,0,10.17-11.35c.59-2.38,4.88-9.62,1.51-10.76a2,2,0,0,0-2.42,1c-.19.67-.41,1.33-.62,2a28.16,28.16,0,0,0-4.67-13.43,49,49,0,0,0,14.58-9.62c1.06-1.23,2-2.48,3-3.77C264.82,254.62,268.22,262.71,267.32,271.05Z" style="fill:#c93147"/></g></svg>