<svg xmlns="http://www.w3.org/2000/svg" xmlns:xlink="http://www.w3.org/1999/xlink" viewBox="0 0 449.35 429.43"><defs><style>.cls-1,.cls-26,.cls-34,.cls-35,.cls-7{fill:none;}.cls-2{isolation:isolate;}.cls-17,.cls-3,.cls-9{fill:#d34f4f;}.cls-21,.cls-3,.cls-30{opacity:0.2;}.cls-11,.cls-4,.cls-8{fill:#fff;}.cls-25,.cls-5{fill:#ef6f6f;}.cls-6{fill:#843838;}.cls-7{stroke:#ef6f6f;}.cls-26,.cls-34,.cls-35,.cls-7{stroke-miterlimit:10;}.cls-12,.cls-16,.cls-18,.cls-8,.cls-9{opacity:0.4;}.cls-10{fill:url(#linear-gradient);}.cls-11,.cls-25,.cls-32{opacity:0.3;}.cls-12,.cls-16,.cls-18{mix-blend-mode:multiply;}.cls-13,.cls-16{fill:#d19393;}.cls-14{fill:#f9b9a2;}.cls-15,.cls-21{fill:#e28c71;}.cls-18{fill:#eac3c3;}.cls-19{fill:#ffcab3;}.cls-20{fill:#e28d6f;}.cls-22{fill:#4f3b3a;}.cls-23{fill:#c96f6f;}.cls-24{fill:#6d2626;}.cls-26{stroke:#a04e4e;stroke-dasharray:5;}.cls-27{fill:#6d2525;}.cls-28{fill:#a84c4c;}.cls-29{clip-path:url(#clip-path);}.cls-31{fill:#efad97;}.cls-33{fill:#d38989;}.cls-34{stroke:#d38989;stroke-width:0.25px;}.cls-35{stroke:#843838;}</style><linearGradient id="linear-gradient" x1="25.27" y1="5.61" x2="26.51" y2="0.33" gradientTransform="translate(-2.47 18.82)" gradientUnits="userSpaceOnUse"><stop offset="0" stop-color="#fff" stop-opacity="0"/><stop offset="0.15" stop-color="#fdfefe" stop-opacity="0.02"/><stop offset="0.29" stop-color="#f6fafb" stop-opacity="0.08"/><stop offset="0.43" stop-color="#eaf4f5" stop-opacity="0.18"/><stop offset="0.57" stop-color="#d9eced" stop-opacity="0.31"/><stop offset="0.71" stop-color="#c4e1e3" stop-opacity="0.49"/><stop offset="0.85" stop-color="#aad4d7" stop-opacity="0.71"/><stop offset="0.98" stop-color="#8bc5c8" stop-opacity="0.96"/><stop offset="1" stop-color="#87c3c6"/></linearGradient><clipPath id="clip-path"><path class="cls-1" d="M272.35,224.34s-36.32.33-111.14,26c0,0-22.34-2.49-37.23,9.18,0,0-17.25,11.44-16,39.84,1.5,35.41,37.95,106.12,37.95,106.12s12.55-1.71,20.9-4.71c0,0-13.18-89,6.9-120.4h75.25a132.16,132.16,0,0,1,48.67-16.57c4.63-15.65,14.3-36.51,32.81-34.92,0,0,27-1.74,23.88,44.16,15.14,7.78,30.1,20.76,43.45,41.32l16.8-10.53S375,180.5,272.35,224.34Z"/></clipPath></defs><g class="cls-2"><g id="OBJECTS"><polygon id="BACK" class="cls-3" points="2.06 55.24 22 402.94 424.06 402.94 441.36 49.94 2.06 55.24"/><g id="CLOSET"><path class="cls-4" d="M38.43,267.21c-.19-6.43-4.68-7.22-6.82-7.24l.25-5.69H8.11l3.59,24.79,19.13-.93.12-2.91C33.45,275,38.63,273.64,38.43,267.21Zm-7.38,5.69.4-9.21c1.58.08,4.25.7,4.25,3.95S32.85,272.28,31.05,272.9Z"/><polygon class="cls-5" points="75.79 392.29 74.4 422.33 70.83 422.79 69.98 392.48 75.79 392.29"/><polygon class="cls-6" points="7.24 393.22 85.4 393.22 85.4 275.3 0 279.45 7.24 393.22"/><polygon class="cls-7" points="5.36 286.78 7.75 318.21 58.15 315.99 55.1 284.56 5.36 286.78"/><polygon class="cls-7" points="7.75 325.56 12.02 387.49 75.79 387.49 72.89 322.83 7.75 325.56"/><polygon class="cls-5" points="13.39 393.22 15.61 422.38 19.2 422.6 19.2 393.22 13.39 393.22"/><polygon class="cls-5" points="13.62 396.21 18.09 396.72 18.6 422.52 19.2 422.52 19.2 393.22 13.39 393.22 13.62 396.21"/><path class="cls-5" d="M43.5,332.12a2.89,2.89,0,1,1-2.88-2.88A2.89,2.89,0,0,1,43.5,332.12Z"/><path class="cls-5" d="M41.24,292.56a2.89,2.89,0,1,1-2.88-2.89A2.88,2.88,0,0,1,41.24,292.56Z"/><path class="cls-8" d="M19.51,249.32A16,16,0,0,1,15.8,237.4c.77-7.17,6.92-9,6-18.71a14.84,14.84,0,0,1,3.59,11.54C24.77,237.66,15.8,233.94,19.51,249.32Z"/></g><g id="PLANT"><path class="cls-6" d="M404.46,219.37s-1.8-92.76,30.43-84.08S420.81,177.06,404.46,219.37Z"/><path class="cls-4" d="M395.84,414.7s-1.27-121.28,0-135.27c.64-7,1.5-15.15,2.58-23.86.53-4.36,1.15-8.86,1.8-13.42.34-2.28.68-4.58,1-6.88s.75-4.62,1.13-6.93c.78-4.61,1.6-9.22,2.5-13.74.44-2.27.89-4.51,1.37-6.72s1-4.39,1.45-6.52c1-4.28,2-8.4,3.07-12.28.5-2,1.08-3.82,1.6-5.64s1.09-3.56,1.62-5.23,1.06-3.27,1.6-4.78,1-2.94,1.54-4.27,1-2.58,1.45-3.72l1.33-3.12.57-1.34.55-1.15c.35-.72.64-1.33.87-1.82l.73-1.52s-.25.53-.7,1.53c-.23.49-.51,1.11-.85,1.83l-.53,1.16c-.17.42-.36.87-.55,1.35l-1.29,3.13c-.45,1.15-.89,2.41-1.39,3.74s-1,2.77-1.48,4.29-1,3.11-1.53,4.79-1.05,3.42-1.54,5.25-1,3.7-1.51,5.65c-1,3.89-2,8-2.89,12.3-.46,2.14-.92,4.32-1.35,6.53s-.86,4.45-1.27,6.72c-.83,4.52-1.58,9.14-2.3,13.76l-1,6.92c-.31,2.31-.61,4.61-.92,6.89-.58,4.56-1.13,9-1.6,13.41-.95,8.71-1.69,16.85-2.23,23.84s.85,124.74.62,128.82-.3,6.4-.3,6.4Z"/><path class="cls-5" d="M391.52,241.79s5.11-66.36-18.33-61.47S381.56,210.82,391.52,241.79Z"/><path class="cls-4" d="M397.27,413.87s-1.71-118.65-2.07-128.72c-.17-5-.45-10.91-.86-17.19-.21-3.15-.46-6.39-.74-9.69-.15-1.64-.3-3.3-.45-5s-.35-3.33-.52-5c-.37-3.34-.77-6.68-1.22-10-.23-1.64-.46-3.26-.71-4.86s-.5-3.19-.77-4.74c-.52-3.1-1.1-6.09-1.69-8.92-.28-1.41-.62-2.78-.92-4.1s-.63-2.59-.94-3.81-.63-2.39-.95-3.49-.61-2.15-.93-3.12-.6-1.89-.89-2.73l-.82-2.29c-.13-.34-.24-.67-.35-1s-.25-.58-.35-.85l-.55-1.34-.46-1.12s.16.39.44,1.13c.15.36.32.81.53,1.35.11.26.22.55.34.85s.21.64.33,1c.24.7.51,1.47.8,2.3s.54,1.76.84,2.74.59,2,.89,3.13.61,2.27.89,3.5.62,2.49.89,3.82.59,2.69.85,4.11c.56,2.82,1.08,5.82,1.56,8.92.25,1.55.49,3.13.7,4.74s.44,3.22.63,4.86c.41,3.28.76,6.61,1.08,9.95l.45,5c.13,1.66.25,3.32.38,5,.23,3.29.43,6.53.59,9.67.32,6.27.52,12.14.62,17.17s1.87,121.13,1.86,124.06-.05,4.6-.05,4.6Z"/><polygon class="cls-5" points="368.58 422.26 361.14 359.73 432.82 354.95 425.64 422.7 368.58 422.26"/><polygon class="cls-4" points="362.8 373.72 431.13 370.83 431.3 369.24 362.62 372.2 362.8 373.72"/><polygon class="cls-4" points="430.66 375.33 430.83 373.74 363.15 376.66 363.33 378.18 430.66 375.33"/><path class="cls-9" d="M420,415.77c-25.83,0-47-24.93-49.18-56.69l-9.68.65,7.44,62.53,57.06.44.79-7.47A40.23,40.23,0,0,1,420,415.77Z"/></g><g id="PICTURE"><g id="PICTURE-2" data-name="PICTURE"><path class="cls-5" d="M105.92,96.13,31,97.64,17.47,13.71l93.65-8.84ZM35.78,91.55l62.94-2.89L101.12,13l-75,7.75Z"/><rect class="cls-10" x="23.1" y="16.18" width="2.64" height="2.62" transform="translate(-0.62 0.9) rotate(-2.1)"/><path class="cls-4" d="M107.3,94.86,32.37,96.37,18.86,12.44,112.5,3.6ZM37.16,90.28l62.94-2.89,2.4-75.69-75,7.75Z"/></g><polygon class="cls-11" points="45.05 30.64 52.17 77.82 82.85 74.82 85.19 26.83 45.05 30.64"/></g><g id="WOMEN"><path class="cls-6" d="M168.67,18.62s-9-8-18.45-6.91S132.91,26.31,133,37.58s-11,15.68-9.33,28.48S136.13,81,134.19,91s-7.74,35.12,50.76,22.84c47.09-9.89,57.1-27.2,55.81-40.9s-21.36-17.8-22.6-33.53S217.7,7.28,202.39,1,168.67,18.62,168.67,18.62Z"/><g class="cls-12"><path class="cls-13" d="M173,116a79.26,79.26,0,0,1-15.64-32.46l-.89.16a80.23,80.23,0,0,0,15.49,32.45Z"/><path class="cls-13" d="M216.86,103.79c2.78-9,5.27-18.06,4-25.46l-.86.27c1.25,7.38-1.38,16.6-4.21,25.7Z"/></g><g class="cls-12"><path class="cls-13" d="M173,116a79.26,79.26,0,0,1-15.64-32.46l-.89.16a80.23,80.23,0,0,0,15.49,32.45Z"/><path class="cls-13" d="M216.86,103.79c2.78-9,5.27-18.06,4-25.46l-.86.27c1.25,7.38-1.38,16.6-4.21,25.7Z"/></g><g class="cls-12"><path class="cls-13" d="M173,116a79.26,79.26,0,0,1-15.64-32.46l-.89.16a80.23,80.23,0,0,0,15.49,32.45Z"/><path class="cls-13" d="M216.86,103.79c2.78-9,5.27-18.06,4-25.46l-.86.27c1.25,7.38-1.38,16.6-4.21,25.7Z"/></g><path class="cls-14" d="M211.23,64.3c.62,4.55,2.67,8,6.76,7.45s8.64-4.94,8-9.48-4.45-7.77-8.53-7.21S210.6,59.76,211.23,64.3Z"/><path class="cls-15" d="M220.76,65s-3.31-2.3-6.61,2.08C214.15,67,216.08,61,220.76,65Z"/><path class="cls-5" d="M214.75,72.17l-.37-6.39a5.2,5.2,0,0,1,2.71-1.46,4.69,4.69,0,0,1,5.66,3.43,4.48,4.48,0,0,1-2.32,4.71l1.6,5.67-2.2.68L216.59,73A5,5,0,0,1,214.75,72.17Z"/><path class="cls-6" d="M421.31,66.89A4.49,4.49,0,0,1,419.65,73L398.4,85.26a4.51,4.51,0,0,1-6.15-1.65L371.67,47.84a4.5,4.5,0,0,1,1.66-6.15l21.25-12.23a4.5,4.5,0,0,1,6.15,1.66Z"/><path class="cls-5" d="M420.55,65.57a4.49,4.49,0,0,1-1.66,6.14L397.64,83.94a4.51,4.51,0,0,1-6.15-1.65L370.91,46.52a4.5,4.5,0,0,1,1.66-6.15l21.26-12.23A4.5,4.5,0,0,1,400,29.8Z"/><path class="cls-4" d="M417.38,64.26a3.94,3.94,0,0,1-1.45,5.37l-18.6,10.7A3.93,3.93,0,0,1,392,78.89L374,47.6a3.94,3.94,0,0,1,1.44-5.38L394,31.52A4,4,0,0,1,399.38,33Z"/><path class="cls-4" d="M386,36.13a1.49,1.49,0,1,1-2-.55A1.5,1.5,0,0,1,386,36.13Z"/><path class="cls-6" d="M388,51.18,393.63,61a3.16,3.16,0,0,0-1.5.45c-1.16.66-1.75,1.81-1.32,2.57s1.73.82,2.89.16,1.74-1.82,1.31-2.58h0l-4.79-8.34,8.26-4.75,4.18,7.27a3.16,3.16,0,0,0-1.46.45c-1.16.66-1.75,1.81-1.31,2.57s1.72.82,2.88.16,1.75-1.82,1.31-2.58l-6.23-10.82Z"/><path class="cls-6" d="M334.8,35.38,332,46.28a3.29,3.29,0,0,0-1.39-.73c-1.29-.34-2.51.07-2.73.91s.65,1.8,1.94,2.14,2.52-.07,2.74-.91h0L335,38.38l9.22,2.42-2.12,8.11a3.26,3.26,0,0,0-1.36-.71c-1.29-.34-2.52.07-2.74.91s.65,1.8,1.94,2.14,2.52-.07,2.74-.91l3.16-12.09Z"/><path class="cls-6" d="M292,13.13,295.44,36a6.68,6.68,0,0,0-3.2-.27c-2.71.41-4.69,2.17-4.42,3.93s2.67,2.86,5.38,2.46,4.68-2.17,4.42-3.93h0L294.7,18.67,314,15.77l2.55,17a6.82,6.82,0,0,0-3.13-.24c-2.71.4-4.68,2.16-4.42,3.93s2.67,2.86,5.38,2.45,4.69-2.16,4.42-3.93L315,9.67Z"/><path class="cls-6" d="M267.2,28.19l3.36,22.3a6.64,6.64,0,0,0-3.19-.27c-2.71.41-4.69,2.17-4.42,3.93s2.67,2.86,5.37,2.46,4.69-2.17,4.43-3.93h0l-3.39-25"/><path class="cls-6" d="M356.26,46.28l1.85,8.06a2.59,2.59,0,0,0-1.18,0c-1,.23-1.65.93-1.5,1.56s1.05,1,2,.75,1.65-.92,1.51-1.56h0L357,46"/><path class="cls-11" d="M407.68,49.21l-8.53-14.83a3.7,3.7,0,0,0-5-1.36l-17.45,10a3.7,3.7,0,0,0-1.36,5l6.37,11.06Z"/><path class="cls-6" d="M385.26,36.55a.64.64,0,0,1-.24.88h0a.64.64,0,0,1-.88-.23h0a.65.65,0,0,1,.24-.89h0a.64.64,0,0,1,.88.24Z"/><path class="cls-5" d="M414.54,303.84s12.73,4.66,32.78-3.94l2,4.3-41.19,31.62s-7.8-10.5-10.42-21.45"/><path class="cls-4" d="M398.94,311.86s3.6,5.74,7.31,4.73,2-10.36,2-10.36"/><path class="cls-5" d="M145.88,405.49s-3.75,5.19-19,13.29l2.7,3.6h44.15s-4.59-12.89-6.9-21.6"/><path class="cls-4" d="M162.3,400.78s2.33,6.67,3.6,6.75-.37-7.65-.37-7.65"/><path class="cls-16" d="M62.54,385.63h3.9l1.84,7.59H85.4V275.3l-47,2.28C39.34,321.86,62.54,385.63,62.54,385.63Z"/><path class="cls-4" d="M79.71,387.49l3.59,35.1H96.05S100.1,387,114.5,387v-3.9H79.78Z"/><path class="cls-3" d="M79.71,387.49l1,9.17,24.08-3.28c2.8-3.06,4.54-6.34,9.72-6.34v-3.9H79.78Z"/><path class="cls-4" d="M319.44,387.49l-3.59,35.1H303.1S299.05,387,284.65,387v-3.9h34.73Z"/><path class="cls-3" d="M294,392.9a33,33,0,0,1,3.2,5.72.21.21,0,0,0,0,.06l21.44-4.34.74-6.85-.06-4.35H284.65V387a9.66,9.66,0,0,1,6.2,2.37A13.55,13.55,0,0,1,294,392.9Z"/><path class="cls-5" d="M254.1,100.38H146c-104.5,0-54.1,180-54.1,180l98.84,9.52v1.8l9.33-.9,9.33.9v-1.8l98.84-9.52S358.59,100.38,254.1,100.38Z"/><path class="cls-17" d="M291.74,267.55c1.11-4.36,2-8.75,2.94-13.16s1.7-8.82,2.42-13.26c1.42-8.87,2.59-17.78,3.31-26.72a234,234,0,0,0,.7-26.87A139.33,139.33,0,0,0,297.89,161,88.14,88.14,0,0,0,294,148.23a61.33,61.33,0,0,0-6.15-11.74,48.57,48.57,0,0,0-8.78-9.81,43.32,43.32,0,0,0-11.24-6.82,51,51,0,0,0-12.77-3.4,90.89,90.89,0,0,0-13.34-.66c-9,0-18-.1-27-.17v-1.4c0,2.8,0,.77,0,1.4h-3.77l-3.78,0-7.57-.06-15.12-.15c-10.09-.14-20.17-.23-30.26-.43,10.09-.2,20.17-.29,30.26-.44l15.12-.14,7.57-.06,3.78,0,1.89,0h1.88c0,.62,0-1.4,0,1.4v-1.4c9-.07,18-.17,27-.17a92.6,92.6,0,0,1,13.59.61,53.5,53.5,0,0,1,13.24,3.45,45.27,45.27,0,0,1,11.76,7.07,47.83,47.83,0,0,1,9.18,10.19,62.73,62.73,0,0,1,6.28,12.15,89.29,89.29,0,0,1,4,13,140.49,140.49,0,0,1,3.13,26.93,227.86,227.86,0,0,1-1.11,27q-1.32,13.46-3.83,26.75C296.17,250.11,294.24,258.91,291.74,267.55Z"/><path class="cls-18" d="M79.78,198.45c1,42.16,12.08,81.93,12.08,81.93l98.84,9.52v1.8l9.33-.9,9.33.9v-1.8l90.1-8.67v-8.5l-169.66-9.9C114,220,90.53,203.86,79.78,198.45Z"/><path class="cls-5" d="M336.51,230c-35.5-9.86-42.6,50.4-42.6,50.4H105.5S98.4,220.12,62.9,230c-43.2,12,6.6,148.81,6.6,148.81H329.91S379.71,242,336.51,230Z"/><path class="cls-17" d="M85.4,249.18a14.37,14.37,0,0,0-.87-1.18,23.27,23.27,0,0,0-2.85-3,19.62,19.62,0,0,0-5.36-3.46,15.39,15.39,0,0,0-8.06-1.09l-.57.06-.55.13-1.14.28-.57.15c-.15,0-.36.14-.54.21l-.57.23a5.14,5.14,0,0,0-.51.29,10.8,10.8,0,0,0-3.49,3.44,29,29,0,0,0-3.66,10.19,72.89,72.89,0,0,0-1.06,11.69c-.07,4,.07,8.09.39,12.15a228,228,0,0,0,3.09,23.78c1.36,7.53,2.83,14.54,4.24,20.5.68,3,1.37,5.72,1.95,8.14s1.16,4.52,1.6,6.26l1.43,5.44L66.68,338c-1-3.44-2.43-8.35-3.91-14.31-.76-3-1.53-6.21-2.31-9.65S58.91,307,58.23,303.2A230.56,230.56,0,0,1,55,279.35c-.29-4.1-.41-8.2-.32-12.25a73.66,73.66,0,0,1,1.14-11.83,28.57,28.57,0,0,1,3.9-10.44,11.48,11.48,0,0,1,3.81-3.6c.19-.1.38-.22.57-.31l.57-.22.59-.22.6-.14,1.17-.27.58-.12.59,0a15.25,15.25,0,0,1,8.28,1.31,19.78,19.78,0,0,1,5.35,3.64A23.42,23.42,0,0,1,84.58,248C85.14,248.74,85.4,249.18,85.4,249.18Z"/><path class="cls-17" d="M76.7,259.53a5.25,5.25,0,1,1-5.25-5.25A5.25,5.25,0,0,1,76.7,259.53Z"/><path class="cls-9" d="M314,249.18s7.5-12.3,20.1-8.4,15.6,38.1-3,102.61"/><path class="cls-17" d="M314,249.18s.26-.44.83-1.21a22,22,0,0,1,2.76-3.12,19.71,19.71,0,0,1,5.34-3.64,15.25,15.25,0,0,1,8.28-1.31l.59,0,.58.12,1.17.28.6.13.59.22.57.22c.19.09.38.21.57.31a11.48,11.48,0,0,1,3.81,3.6,28.57,28.57,0,0,1,3.9,10.44,72.53,72.53,0,0,1,1.14,11.83c.1,4,0,8.15-.32,12.25a225.25,225.25,0,0,1-3.24,23.85c-.68,3.78-1.46,7.41-2.23,10.84s-1.55,6.67-2.31,9.65c-1.48,6-2.92,10.87-3.91,14.31l-1.62,5.39,1.43-5.44c.45-1.74,1-3.84,1.6-6.26s1.27-5.15,2-8.13c1.41-6,2.88-13,4.23-20.51a228,228,0,0,0,3.09-23.78c.32-4.06.46-8.14.39-12.15a72.89,72.89,0,0,0-1.06-11.69,29,29,0,0,0-3.65-10.19,10.93,10.93,0,0,0-3.5-3.44c-.17-.1-.33-.2-.51-.29l-.57-.23a5.4,5.4,0,0,0-.54-.21l-.57-.15-1.13-.28-.56-.13-.57-.06a15.39,15.39,0,0,0-8.06,1.09,19.78,19.78,0,0,0-5.36,3.46,23.27,23.27,0,0,0-2.85,3C314.29,248.75,314,249.18,314,249.18Z"/><path class="cls-17" d="M322.71,259.53a5.25,5.25,0,1,0,5.25-5.25A5.25,5.25,0,0,0,322.71,259.53Z"/><path class="cls-17" d="M307.11,324.18l.92-.06a8.91,8.91,0,0,0,6-3.33,8.86,8.86,0,0,0,1.91-5.35c0-4.42-.1-9.78-.16-15.92,0-3.08-.07-6.35-.11-9.8v-.32l0-.3c0-.22,0-.44-.05-.65a8.79,8.79,0,0,0-.24-1.2,7.75,7.75,0,0,0-1-2.31,8.59,8.59,0,0,0-3.92-3.33,8.81,8.81,0,0,0-2.6-.61c-.87-.06-1.91,0-2.88,0l-6,0-12.63.09-27.28.14-59.29.13-59.29-.13-27.28-.14L100.5,281l-6,0H92.32l-.73,0a9.16,9.16,0,0,0-2.58.61,8.56,8.56,0,0,0-3.91,3.33,7.78,7.78,0,0,0-1,2.31,9.29,9.29,0,0,0-.3,2.47q-.06,5.17-.11,9.8c-.07,6.14-.12,11.5-.17,15.91a9,9,0,0,0,1.91,5.36,9.13,9.13,0,0,0,3.38,2.62,9.32,9.32,0,0,0,2.58.71l.92.06-.92,0a9.53,9.53,0,0,1-2.63-.64,9.35,9.35,0,0,1-3.51-2.57,9.09,9.09,0,0,1-2.12-5.49c-.05-4.42-.11-9.78-.19-15.93q0-4.62-.11-9.8a9.56,9.56,0,0,1,5.75-9.14,10.13,10.13,0,0,1,3-.74l.73,0h2.23l6,0,12.64-.09,27.28-.13,59.29-.14,59.29.14,27.28.14,12.63.08,6,0c1,0,1.92,0,3,.06a10.16,10.16,0,0,1,2.94.74,9.63,9.63,0,0,1,4.37,3.81A8.77,8.77,0,0,1,316.3,287a10.34,10.34,0,0,1,.25,1.39l0,.66v.67q-.06,5.17-.11,9.8c-.07,6.15-.14,11.51-.19,15.93a9.06,9.06,0,0,1-2.11,5.49,9.37,9.37,0,0,1-3.52,2.57,9.53,9.53,0,0,1-2.63.64Z"/><path class="cls-17" d="M118.1,324.18l26-.28,26.67-.15,30.57-.06,30.56.06,26.67.15,26,.28-26,.29-26.67.15-30.56.06-30.57-.06-26.67-.16Z"/><path class="cls-17" d="M293.41,280.32a112.49,112.49,0,0,1,2.49-12.17c.47-1.8,1-3.75,1.64-5.78s1.36-4.17,2.2-6.34,1.8-4.38,2.86-6.59a59.69,59.69,0,0,1,3.64-6.45c.65-1.06,1.42-2,2.14-3.05.36-.5.79-.95,1.17-1.43s.77-1,1.22-1.39a28.24,28.24,0,0,1,2.63-2.51c.46-.38.89-.8,1.38-1.14l1.45-1a11.27,11.27,0,0,1,1.49-.89l1.5-.8,1.55-.61a8.67,8.67,0,0,1,1.53-.53,19,19,0,0,1,3-.64,16.07,16.07,0,0,1,2.89-.21l1.37,0h.66l.64.09,2.38.33c1.47.36,2.75.67,3.78,1l3.18,1.2-3.2-1.16c-1-.32-2.31-.61-3.77-1l-2.38-.3-.64-.08h-2a16.88,16.88,0,0,0-2.87.25,19.52,19.52,0,0,0-3,.67,9.39,9.39,0,0,0-1.51.54l-1.53.62-1.47.82a11.63,11.63,0,0,0-1.46.89c-.46.34-.94.67-1.42,1s-.89.76-1.35,1.14a30.39,30.39,0,0,0-2.56,2.52c-.44.42-.79.92-1.19,1.38s-.79.93-1.14,1.44c-.7,1-1.45,2-2.08,3a60.3,60.3,0,0,0-3.53,6.44c-1,2.2-1.95,4.4-2.75,6.57s-1.49,4.29-2.1,6.32-1.12,4-1.56,5.77c-.88,3.59-1.45,6.62-1.81,8.75s-.5,3.34-.5,3.34Z"/><path class="cls-17" d="M105,280.44s-.12-1.15-.44-3.17-.82-4.89-1.61-8.3c-.41-1.7-.86-3.54-1.42-5.47s-1.19-3.94-1.92-6-1.56-4.16-2.51-6.25c-.48-1-1-2.09-1.51-3.12s-1.11-2.05-1.69-3.05-1.26-2-1.88-2.95-1.34-1.89-2.1-2.75a30.59,30.59,0,0,0-2.29-2.52,28.46,28.46,0,0,0-2.46-2.23,11.86,11.86,0,0,0-1.3-1l-1.31-.91c-.91-.51-1.8-1-2.71-1.46l-1.37-.57a8.71,8.71,0,0,0-1.35-.48l-1.34-.38a7.59,7.59,0,0,0-1.3-.29c-.87-.12-1.69-.29-2.49-.36l-2.27-.08c-.71,0-1.37.09-2,.11s-1.18.08-1.68.15l-3.17.6,3.16-.64c.51-.08,1.07-.11,1.69-.17a17.26,17.26,0,0,1,2-.14l2.28.05c.8,0,1.63.21,2.51.32a7.7,7.7,0,0,1,1.31.29l1.36.36a8.23,8.23,0,0,1,1.37.47l1.39.55c.92.41,1.82.93,2.75,1.44l1.34.89a12.43,12.43,0,0,1,1.32,1,25.13,25.13,0,0,1,2.52,2.23,29.53,29.53,0,0,1,2.35,2.51c.78.86,1.43,1.83,2.16,2.75s1.34,1.93,1.93,2.95,1.22,2,1.75,3.06S97.15,250,97.65,251c1,2.1,1.85,4.21,2.62,6.27s1.44,4.09,2,6,1.07,3.78,1.5,5.49A103.25,103.25,0,0,1,106,280.33Z"/><polygon class="cls-4" points="73.4 378.79 75.5 387.49 322.71 387.49 325.11 378.79 73.4 378.79"/><polygon class="cls-3" points="73.4 378.79 74.45 383.14 324.43 381.25 325.11 378.79 73.4 378.79"/><polygon class="cls-9" points="99.2 324.18 299.46 324.18 299.46 332.59 99.2 324.18"/><path class="cls-4" d="M197.33,94.44s-50.15,10.2-89.4,25.39c0,0,18.61,82.51,19.85,86l.74,56s85.95-32.94,143.83-37.48c0,0-27-70.24-27.33-74.27s10.92-13.69,10.16-21.75S234.16,113,230.33,95C230.33,95,218.11,93.31,197.33,94.44Z"/><path class="cls-19" d="M144.35,107.7c3.47,6.64,21.67,37.87,52.28,27.71,26.92-8.94,24.23-31.9,21.87-41.26-5.42-.17-12.55-.18-21.17.29C197.33,94.44,172.64,99.46,144.35,107.7Z"/><path class="cls-19" d="M206.69,97.06c2.23,16.16-6.25,26.05-18.16,27.7h0c-11.91,1.64-22.74-5.59-25-21.76l-5.79-42.06c-2.23-16.17,6.13-20.77,18-22.41l.74-.77c11.91-1.64,22.12,1.07,24.34,17.23Z"/><path class="cls-20" d="M163.12,99.78c6.13,6.13,15.75,8.42,26.15,7a35.39,35.39,0,0,0,17.67-7.18c-.06-.82-.13-1.66-.25-2.53L200.89,55c-2.22-16.16-12.43-18.87-24.34-17.23s-21,7-18.78,23.18Z"/><path class="cls-14" d="M163.89,68.55c.8,5.85-.53,10.88-5.79,11.6s-12.45-3.12-13.26-9,2.81-11.18,8.06-11.9S163.08,62.7,163.89,68.55Z"/><path class="cls-15" d="M152.29,72.68s3.31-4,8.92.28C161.21,73,156.69,66.09,152.29,72.68Z"/><path class="cls-19" d="M155.57,45l5.14,37.37c2.23,16.16,16.52,22.92,32.68,20.69s28.1-12.59,25.87-28.76l-5.79-42.06v0C182.5,32.05,163.47,40.47,155.57,45Z"/><path class="cls-6" d="M190.7,50.15c1,2.31-2.43,2-5.85,3.56s-5.51,4.32-6.55,2,.9-5.43,4.32-7S189.66,47.84,190.7,50.15Z"/><path class="cls-6" d="M201.29,51.22c-.28,2.15,2.5,1.06,5.69,1.49s5.61,2.2,5.89,0-2.07-4.25-5.28-4.67S201.58,49.06,201.29,51.22Z"/><path class="cls-21" d="M180.57,73.1c.28,2.06-2.57,4.16-6.37,4.69s-7.12-.73-7.4-2.8,2.56-4.16,6.37-4.68S180.28,71,180.57,73.1Z"/><path class="cls-21" d="M226,68.83c.22,1.6-2,3.22-4.93,3.63s-5.5-.56-5.72-2.16,2-3.22,4.93-3.62S225.81,67.24,226,68.83Z"/><path class="cls-19" d="M198.29,66.56s5.43-3.14,7.05-2-3.42,8.34-3.42,8.34"/><path class="cls-20" d="M199,66s.19-.13.53-.33a15.67,15.67,0,0,1,1.46-.78,9.63,9.63,0,0,1,2.24-.75,3.16,3.16,0,0,1,1.4,0,1.11,1.11,0,0,1,.36.15,1.26,1.26,0,0,1,.32.25,1.54,1.54,0,0,1,.36.72,3.63,3.63,0,0,1-.08,1.44A8.34,8.34,0,0,1,205.2,68c-.16.4-.36.77-.53,1.12s-.36.67-.54,1c-.34.6-.66,1.06-.89,1.39s-.36.51-.36.51l.28-.56c.09-.17.2-.39.32-.64s.25-.53.4-.83c.3-.61.61-1.33.9-2.11a10.63,10.63,0,0,0,.36-1.22,3,3,0,0,0,.06-1.23.92.92,0,0,0-.68-.76,3,3,0,0,0-1.2,0,10.84,10.84,0,0,0-2.2.58c-.62.23-1.15.43-1.52.59Z"/><path class="cls-22" d="M182.86,61a33.33,33.33,0,0,0,1.22,3.46,15.31,15.31,0,0,0,1.76,3.24A4.75,4.75,0,0,0,187.27,69a2.22,2.22,0,0,0,.9.26c.06,0,.18,0,.2,0l.28,0a1.09,1.09,0,0,0,.35-.16,3,3,0,0,0,1-1.61,11,11,0,0,0,.42-2,32.2,32.2,0,0,0,.23-3.73c0-2.2-.06-3.68-.06-3.68a29.53,29.53,0,0,1,.47,3.67,25.62,25.62,0,0,1,0,3.81,12.08,12.08,0,0,1-.4,2.15,3.58,3.58,0,0,1-1.29,2,2,2,0,0,1-.66.26l-.27,0a1.17,1.17,0,0,1-.34,0,3.18,3.18,0,0,1-1.18-.36,5.61,5.61,0,0,1-1.6-1.58,9.65,9.65,0,0,1-1-1.79c-.25-.59-.46-1.16-.64-1.68A21.11,21.11,0,0,1,182.86,61Z"/><path class="cls-22" d="M204.92,57.46s.34,1.13.9,2.79c.27.83.64,1.79,1.07,2.77a13.48,13.48,0,0,0,.76,1.46,2.94,2.94,0,0,0,1.06,1.07,1.5,1.5,0,0,1,.29.06,3,3,0,0,1,.35-.1,1,1,0,0,1,.19-.17l.23-.28a5.76,5.76,0,0,0,.64-1.45,20,20,0,0,0,.61-2.89c.25-1.73.35-2.91.35-2.91a21.08,21.08,0,0,1,0,2.95,17.22,17.22,0,0,1-.4,3,5.5,5.5,0,0,1-.68,1.67c-.1.13-.19.26-.31.39a3.54,3.54,0,0,1-.51.35,4.21,4.21,0,0,1-.5.13l-.57-.1a3.54,3.54,0,0,1-1.39-1.38,12.44,12.44,0,0,1-.75-1.57,22.07,22.07,0,0,1-.88-2.91A24,24,0,0,1,204.92,57.46Z"/><path class="cls-23" d="M194.05,75.93l.45.1c.28.08.69.13,1.17.21s1.06.11,1.65.2,1.25.09,1.89,0a11.13,11.13,0,0,0,1.87-.22l.86-.16a2.43,2.43,0,0,0,.75-.21c.91-.34,1.57-.52,1.57-.52s-.54.38-1.42.9a7.31,7.31,0,0,1-1.63.61,3.35,3.35,0,0,1-1,.21l-1,.1a11.79,11.79,0,0,1-2-.1,12,12,0,0,1-1.68-.44,7.26,7.26,0,0,1-1.12-.47A2.48,2.48,0,0,1,194.05,75.93Z"/><path class="cls-6" d="M158.87,69s9.5-7.66,8.22-19.26c0,0,9.87,10.22,11.54-8.84,0,0,30.94-11.14,37,7.31l.68,5s-1.41-20.38-2.18-23.19S172.59,31.69,154,43.88L157,59.66l.57.19Z"/><path class="cls-24" d="M167.09,49.69A10,10,0,0,0,169,51.12a7.86,7.86,0,0,0,2.45,1,4.34,4.34,0,0,0,3.22-.59,7.06,7.06,0,0,0,2.24-3.29A22.26,22.26,0,0,0,178,43.84a28,28,0,0,0-.28-9.9l-.14-.65a3.31,3.31,0,0,1-.08-.66,3.8,3.8,0,0,1,.19-1.4,6.35,6.35,0,0,1,1.36-2.3,14,14,0,0,1,4.08-3,22.5,22.5,0,0,1,8.53-2.32,15.83,15.83,0,0,1,6.19.72,10.45,10.45,0,0,1,1.61.69l.54.3-.56-.27a10.05,10.05,0,0,0-1.62-.6,16.52,16.52,0,0,0-6.13-.43,23,23,0,0,0-8.28,2.46,13.13,13.13,0,0,0-3.85,2.88,5.43,5.43,0,0,0-1.21,2.05,3,3,0,0,0-.15,1.13,2.77,2.77,0,0,0,.08.61c0,.15.09.41.13.61a28.48,28.48,0,0,1,.2,10.15,19.6,19.6,0,0,1-1.24,4.53,10,10,0,0,1-1,1.94,5.77,5.77,0,0,1-1.44,1.47,4.45,4.45,0,0,1-3.52.53,7.9,7.9,0,0,1-2.47-1.18A9.77,9.77,0,0,1,167.09,49.69Z"/><path class="cls-24" d="M168.67,18.62s-2.56,3.36-4,5.42l2.87-6.38Z"/><path class="cls-20" d="M197,102.37s1.17-.29,2.86-.87c.43-.14.88-.31,1.36-.49s1-.4,1.5-.59a33.4,33.4,0,0,0,3.16-1.5,16.7,16.7,0,0,0,1.56-.85c.51-.28,1-.59,1.46-.9s.91-.61,1.33-.92a12.32,12.32,0,0,0,1.15-.87l.95-.77L213,94l.62-.55-.55.62a16.46,16.46,0,0,1-1.53,1.55c-.33.31-.7.62-1.11,1a16,16,0,0,1-1.31,1c-.46.32-.95.65-1.46.94s-1,.62-1.57.9a35,35,0,0,1-3.23,1.45c-1.06.4-2.06.71-2.94,1A21.3,21.3,0,0,1,197,102.37Z"/><path class="cls-25" d="M167.05,135.7s21.29,13.71,44.81-5.34C211.86,130.36,192.41,150.61,167.05,135.7Z"/><path class="cls-25" d="M145.88,158s13.85,35.76,54.31.31C200.19,158.35,158.13,205.13,145.88,158Z"/><path class="cls-9" d="M173.68,280.38a149.51,149.51,0,0,0-4.55,43.8h4.55a421.59,421.59,0,0,0,5.65,63.31l-17.1.08S153.63,301,173.68,280.38Z"/><path class="cls-9" d="M173.68,280.38a149.51,149.51,0,0,0-4.55,43.8h4.55a421.59,421.59,0,0,0,5.65,63.31l-17.1.08S153.63,301,173.68,280.38Z"/><path class="cls-6" d="M272.35,224.34s-36.32.33-111.14,26c0,0-22.34-2.49-37.23,9.18,0,0-17.25,11.44-16,39.84,1.5,35.41,37.95,106.12,37.95,106.12s12.55-1.71,20.9-4.71c0,0-13.18-89,6.9-120.4h75.25a132.16,132.16,0,0,1,48.67-16.57c4.63-15.65,14.3-36.51,32.81-34.92,0,0,27-1.74,23.88,44.16,15.14,7.78,30.1,20.76,43.45,41.32l16.8-10.53S375,180.5,272.35,224.34Z"/><path class="cls-26" d="M162.53,398.68s-15.63-100.81,7.33-121.51"/><path class="cls-27" d="M124,259.53s.63-.48,1.8-1.23a52.88,52.88,0,0,1,5-2.84c1.07-.53,2.25-1.06,3.52-1.6s2.61-1.06,4-1.5,2.92-.88,4.45-1.25,3.11-.69,4.7-.9,3.19-.34,4.76-.41c.79,0,1.57,0,2.35,0l2.28.09c.75.07,1.49.12,2.21.21l2.09.33,2,.41c.63.14,1.23.33,1.81.48,1.16.3,2.19.7,3.1,1s1.69.68,2.32,1l1.95,1-2-.79c-.64-.26-1.45-.5-2.36-.81-.46-.15-1-.27-1.48-.41s-1.06-.31-1.64-.43-1.18-.27-1.8-.39l-1.95-.32L159,250.9l-2.17-.16-2.24-.06c-.76,0-1.53,0-2.3,0-1.54.09-3.11.23-4.67.47s-3.1.49-4.62.82-3,.73-4.39,1.17a69,69,0,0,0-7.59,2.78c-2.17,1-4,1.83-5.17,2.49S124,259.53,124,259.53Z"/><path class="cls-28" d="M245.48,251.45l-7.65,5.85,9.23-5.18a65.27,65.27,0,0,0-6.62-23.59l-1.63.32C244.07,238.61,245.48,251.45,245.48,251.45Z"/><path class="cls-28" d="M235.58,250.22l-8.92-18.81-1.79.41Z"/><path class="cls-26" d="M244.88,280.38s1.2-11,0-20"/><polygon class="cls-16" points="173.68 280.38 176.63 275.3 250.42 279.5 248.93 280.38 173.68 280.38"/><path class="cls-27" d="M248.93,280.38s.54-.38,1.43-1.1c.45-.34,1-.8,1.6-1.3s1.28-1.11,2-1.78,1.5-1.38,2.29-2.17,1.58-1.67,2.44-2.54,1.64-1.85,2.46-2.84,1.64-2,2.36-3.07l1.14-1.58c.37-.53.69-1.09,1-1.62s.67-1.08,1-1.61.59-1.1.88-1.63l.85-1.58q.38-.8.72-1.56c.24-.51.46-1,.69-1.48s.36-1,.53-1.42c.34-.92.65-1.76.92-2.51s.4-1.43.55-2c.32-1.11.51-1.74.51-1.74s-.12.65-.32,1.78c-.1.56-.23,1.25-.38,2s-.46,1.64-.75,2.59c-.15.47-.27,1-.46,1.47l-.62,1.54-.65,1.62c-.23.55-.53,1.08-.81,1.64l-.86,1.68c-.31.55-.65,1.1-1,1.65s-.68,1.13-1.05,1.67l-1.14,1.62c-.74,1.09-1.62,2.08-2.43,3.1s-1.72,1.92-2.57,2.83-1.71,1.72-2.57,2.46-1.66,1.45-2.43,2.07-1.5,1.15-2.14,1.64-1.22.86-1.71,1.17C249.51,280.07,248.93,280.38,248.93,280.38Z"/><path class="cls-16" d="M314.84,233.67c-14.93-1.38-23,14.1-26.67,24.6a194.47,194.47,0,0,0-25.5,9.28c-2.28,3.24-8.55,8.81-12.15,11.9A134.48,134.48,0,0,1,285.9,265.9h0c1.84-.42,3.74-.81,5.67-1.16l.16,0q1.23-.23,2.49-.42l.63-.1c.91-.14,1.83-.27,2.75-.39.75-2.51,1.63-5.17,2.65-7.84C303.48,247.52,308.18,238.87,314.84,233.67Z"/><g class="cls-29"><path class="cls-26" d="M278.93,254.88s66-30,120.91,49"/></g><path class="cls-16" d="M161.21,250.35l4.52,1.43s55.18-21.48,106.62-27.44C272.35,224.34,237.36,224.51,161.21,250.35Z"/><path class="cls-16" d="M161.21,250.35l4.52,1.43s55.18-21.48,106.62-27.44C272.35,224.34,237.36,224.51,161.21,250.35Z"/><polygon class="cls-22" points="129.53 422.38 128.05 420.41 173.12 420.79 173.68 422.38 129.53 422.38"/><polygon class="cls-22" points="408.16 335.82 407.5 334.88 448.67 302.75 449.35 304.2 408.16 335.82"/><path class="cls-16" d="M87.08,235.78a41,41,0,0,1,8.17,10.54c2.19-.25,4.4-.56,6.61-.91C96.62,237.15,90.56,235.77,87.08,235.78Z"/><g class="cls-30"><path class="cls-5" d="M160.35,232.37a12.83,12.83,0,0,0,4,.21c2.21,2,5.61,4.62,7.2,4s0-4.18-1.25-6.25a12.8,12.8,0,0,0,2.78-2.6c7.17,6,9.23,3.28,9.23,3.28s5.8,3.18,5.8,1-5.4-11.26-14.44-12.67c-7.37-1.15-16.11.61-19.09,1.3L153.19,218A180.77,180.77,0,0,1,128,221.31l.32,24a315.84,315.84,0,0,0,33-11Z"/></g><path class="cls-31" d="M161.33,225.18s6.81,6.91,9.28,5.92-2.23-7.8-2.23-7.8"/><path class="cls-19" d="M152.57,215.47s11.11-3,20.15-1.56,14.44,10.53,14.44,12.66-5.8-1-5.8-1-2.06,2.7-9.23-3.29a12.94,12.94,0,0,1-14,4.33Z"/><path class="cls-20" d="M166.87,226.22a12.82,12.82,0,0,0,2.24-1.3c.18-.12.35-.26.52-.39a5,5,0,0,0,.5-.41c.17-.14.33-.28.48-.43s.31-.29.45-.46l.42-.48.38-.52a3.74,3.74,0,0,0,.35-.53,4.48,4.48,0,0,0,.32-.56l.27-.57c.08-.2.14-.41.21-.61a2.51,2.51,0,0,0,.17-.61l.13-.62.07-.34.23.25c.66.74,1.33,1.47,2,2.16.36.35.71.7,1.08,1l.56.49c.19.16.36.34.56.5l1.15.94c.38.32.81.58,1.21.87l.6.44c.2.15.43.26.64.39l1.29.76-1.34-.68c-.22-.12-.45-.22-.66-.35l-.63-.41c-.41-.28-.85-.53-1.25-.84l-1.19-.91a6.71,6.71,0,0,1-.58-.48l-.57-.49c-.38-.33-.73-.68-1.1-1a28.6,28.6,0,0,1-2.08-2.18l.3-.08-.14.65a3.58,3.58,0,0,1-.18.64c-.08.2-.15.41-.23.62l-.29.6a6.48,6.48,0,0,1-.33.57c-.13.18-.23.38-.38.55l-.4.51-.46.49c-.14.16-.32.3-.47.45s-.33.29-.5.43-.34.27-.52.39-.36.26-.55.37A12.1,12.1,0,0,1,166.87,226.22Z"/><path class="cls-4" d="M51.37,238.71c3-4.6,8.67-10,18.88-9.65,13.1.42,20.42,9.15,25,17.26,31.39-3.62,65.15-17.5,65.15-17.5l-8.11-16.3s-35.56,7.75-53.09.27,5-35.26,24.78-33.74l-16-59.22s-72.16,35.09-65.4,95.08C43.77,226,45.52,233.67,51.37,238.71Z"/><g class="cls-32"><path class="cls-5" d="M114.19,243.08l5.85-1.53,2.93-.75,2.91-.84,5.81-1.67,5.76-1.81c1-.31,1.93-.6,2.88-.93l2.86-1c1.91-.63,3.82-1.27,5.72-2s3.79-1.35,5.68-2.07,3.76-1.43,5.62-2.18L160,229c-1.37-2.71-2.7-5.44-4.05-8.16l-4-8.16.49.24c-1.48.29-2.94.58-4.43.82s-2.95.5-4.44.7-3,.42-4.46.57-3,.36-4.47.48l-4.49.36c-.74.07-1.49.07-2.24.1l-2.25.07-2.25.07c-.74,0-1.49,0-2.24,0l-4.49-.12,4.49-.08c.74,0,1.49,0,2.24-.05l2.23-.15c1.5-.11,3-.17,4.48-.32l4.45-.45c1.49-.15,3-.39,4.45-.57s3-.43,4.43-.67c3-.47,5.89-1,8.8-1.61l.34-.07.16.31,4.08,8.14c1.36,2.71,2.73,5.42,4.06,8.14l.24.48-.49.19q-2.82,1.13-5.67,2.16c-1.89.71-3.8,1.37-5.71,2s-3.82,1.31-5.74,1.93l-2.89.92c-1,.32-1.93.58-2.9.87l-5.81,1.69L126,240.4l-2.93.75-3,.65Z"/></g><path class="cls-25" d="M106.88,125s7,8.27,13.72,33.06C120.6,158,115.43,131.73,106.88,125Z"/><path class="cls-25" d="M119.25,175.84s4.28.12,6.53,3.21C125.78,179.05,123.53,174.27,119.25,175.84Z"/><path class="cls-4" d="M228.11,94.71S311.22,108.9,377.54,67l10,13.2s-27.3,52.63-149.71,71.53"/><g class="cls-32"><path class="cls-5" d="M262.5,198.45c-1.22-2.92-2.39-5.86-3.57-8.8s-2.33-5.89-3.47-8.85L252,171.94c-1.12-3-2.21-5.94-3.3-8.92s-2.14-6-3.13-9c-.25-.76-.49-1.52-.71-2.29-.11-.39-.21-.78-.3-1.19l0-.33,0-.08s0,0,0-.08v-.19a3.74,3.74,0,0,1,.07-.69,7.87,7.87,0,0,1,1-2.32c.42-.7.87-1.36,1.34-2a88.47,88.47,0,0,0,5.41-7.75,20.87,20.87,0,0,0,1.89-4.24,11.94,11.94,0,0,0,.52-4.52v.08a13.52,13.52,0,0,0-.63-1.62c-.25-.52-.52-1-.82-1.55a18.8,18.8,0,0,0-2.06-2.85,16.42,16.42,0,0,0-1.23-1.27c-.43-.41-.89-.76-1.36-1.15-.92-.75-1.88-1.48-2.77-2.29s-1.79-1.62-2.66-2.45c-.43-.41-.84-.85-1.27-1.27s-.84-.86-1.24-1.3c-.83-.87-1.62-1.77-2.41-2.68s-1.51-1.86-2.21-2.83c.75.93,1.53,1.83,2.34,2.72s1.63,1.75,2.48,2.59c.42.43.85.84,1.29,1.25s.86.83,1.31,1.23c.89.79,1.78,1.59,2.7,2.34s1.87,1.49,2.81,2.22c.47.37,1,.74,1.41,1.15a17.7,17.7,0,0,1,1.31,1.29,19,19,0,0,1,2.2,2.91,16.15,16.15,0,0,1,1.6,3.32v.08a12.21,12.21,0,0,1-.51,4.85,21.42,21.42,0,0,1-1.94,4.44,87.26,87.26,0,0,1-5.4,7.86,13.14,13.14,0,0,0-2.17,4,1.64,1.64,0,0,0,0,.48v.19c0-.07,0,0,0,0v.06l0,.26c.08.36.17.74.28,1.12.21.75.44,1.5.68,2.25,1,3,2,6,3.06,9Z"/></g><path class="cls-19" d="M379.06,69.05s-2.17-10.21-.6-12.12,12.83,8.89,13.05,11-7.31,1.69-7.31,1.69l5.17,9.11-2.59.49Z"/><path class="cls-19" d="M418.56,62.11s1-3.42.63-5.41-3.38-2.58-3.38-2.58-.67-3.38-1.12-4.73S411,47.07,411,47.07s1.05-2.86,0-3.68a8.81,8.81,0,0,0-3.33-1.13s.11-2.55-1-3.22-9,1.57-8.92,3.38,7,1.87,7,1.87-7.77,4.93-7,6.67,10.57-2.69,10.57-2.69-5.68,6.38-4.23,8.06,8.73-1.61,8.73-1.61-4.65,3.6-3.75,5.55,7.88-.6,7.88-.6Z"/><path class="cls-6" d="M220.53,78.6c1.35,8-1.81,18.06-4.88,27.85-.69,2.18-1.33,4.23-1.93,6.27-3,10.31-1.71,23.18-1.35,26.12C166.49,130.34,158,84,157.87,83.51l-.88.16c.08.48,8.79,47.85,55.82,56.17l.62.1-.09-.61c0-.15-2.12-14.89,1.24-26.36.6-2,1.24-4.08,1.92-6.25,3.12-9.94,6.33-20.19,4.89-28.39Z"/><path class="cls-6" d="M343.27,162.24c-1.47,0-2.93,0-4.36-.12-16.73-1-25-6.19-33-11.22-9-5.66-17.5-11-37.42-9.27-39.94,3.47-63.07-3.5-63.29-3.57l.26-.86c.23.07,23.2,7,62.95,3.53,20.22-1.75,28.84,3.67,38,9.41,7.91,5,16.09,10.11,32.59,11.08,30,1.77,55.33-12.44,64.88-27.38,8.9-13.94,8.1-30.89-2.36-50.37l.79-.42c10.48,19.51,11.29,37.24,2.32,51.27-6,9.36-16.15,17-29.41,22A92.36,92.36,0,0,1,343.27,162.24Z"/><path class="cls-5" d="M160.14,78.13l-.88-6.33a5.12,5.12,0,0,0-2.94-.91,4.69,4.69,0,0,0-4.89,4.46,4.5,4.5,0,0,0,3.19,4.18l2.13,5.79,2.4-.6-.65-5.38A4.87,4.87,0,0,0,160.14,78.13Z"/><path class="cls-33" d="M158.18,85s.09.31.23.86.39,1.33.66,2.27.63,2,1,3.17.81,2.38,1.32,3.58.92,2.43,1.44,3.53.92,2.17,1.4,3l1.46,2.9-1.58-2.84c-.49-.85-.92-1.91-1.45-3s-1-2.32-1.5-3.52-.86-2.46-1.27-3.61-.7-2.25-1-3.2C158.42,86.24,158.18,85,158.18,85Z"/><path class="cls-34" d="M221.39,78.33s1.6,7.14-2.4,20.2"/></g><g id="LINE"><line class="cls-35" x1="393.82" y1="422.59" x2="432.18" y2="422.59"/><line class="cls-35" x1="7.06" y1="422.59" x2="387.12" y2="422.59"/><path class="cls-3" d="M387.12,422.71H18.76c0,3.71,92.39,6.72,206.37,6.72,65.68,0,124.2-1,162-2.56Z"/><path class="cls-3" d="M393.82,422.71v3.87c23.73-1.1,37.68-2.43,37.68-3.87Z"/></g></g></g></svg>